<svg xmlns="http://www.w3.org/2000/svg" version="1.1" xmlns:xlink="http://www.w3.org/1999/xlink" xmlns:svgjs="http://svgjs.dev/svgjs" width="1500" height="935" viewBox="0 0 1500 935"><g transform="matrix(1,0,0,1,-0.9090909090909918,0.37854251012157647)"><svg viewBox="0 0 396 247" data-background-color="#ffffff" preserveAspectRatio="xMidYMid meet" height="935" width="1500" xmlns="http://www.w3.org/2000/svg" xmlns:xlink="http://www.w3.org/1999/xlink"><g id="tight-bounds" transform="matrix(1,0,0,1,0.2400000000000091,-0.09999999999999432)"><svg viewBox="0 0 395.52 247.2" height="247.2" width="395.52"><g><svg></svg></g><g><svg viewBox="0 0 395.52 247.2" height="247.2" width="395.52"><g transform="matrix(1,0,0,1,75.54432,98.60780125290853)"><svg viewBox="0 0 244.43135999999998 49.98439749418292" height="49.98439749418292" width="244.43135999999998"><g><svg viewBox="0 0 244.43135999999998 49.98439749418292" height="49.98439749418292" width="244.43135999999998"><g><svg viewBox="0 0 244.43135999999998 49.98439749418292" height="49.98439749418292" width="244.43135999999998"><g><svg viewBox="0 0 244.43135999999998 49.98439749418292" height="49.98439749418292" width="244.43135999999998"><g id="textblocktransform"><svg viewBox="0 0 244.43135999999998 49.98439749418292" height="49.98439749418292" width="244.43135999999998" id="textblock"><g><svg viewBox="0 0 244.43135999999998 49.98439749418292" height="49.98439749418292" width="244.43135999999998"><g transform="matrix(1,0,0,1,0,0)"><svg width="244.43135999999998" viewBox="1.71 -40.16 272.78000000000003 55.79" height="49.98439749418292" data-palette-color="#ff908b"><path d="M19.8-12.87L5.64-12.87Q5.22-12.87 5.22-11.08L5.22-11.08Q5.22-7.3 7.47-4.74 9.72-2.17 13.05-2.17 16.38-2.17 19.46-5.05L19.46-5.05Q19.51-5.1 19.58-5.1L19.58-5.1 19.7-5.1Q19.85-5.1 19.98-4.87 20.12-4.64 20.24-4.57L20.24-4.57Q17.41-1.12 13.57 0.2L13.57 0.2Q12.26 0.66 10.6 0.66 8.94 0.66 7.23-0.26 5.52-1.17 4.3-2.66L4.3-2.66Q1.71-5.76 1.71-10.39 1.71-15.01 4.53-18.82 7.35-22.63 12.28-22.63L12.28-22.63Q15.82-22.63 18.07-19.47 20.31-16.31 20.31-13.92L20.31-13.92Q20.31-12.87 19.8-12.87L19.8-12.87ZM5.91-15.5L5.91-15.21Q5.91-14.75 6.35-14.75L6.35-14.75 15.55-14.75Q16.19-14.75 16.19-15.5L16.19-15.5Q16.19-17.26 14.61-19.1 13.04-20.95 11.16-20.95L11.16-20.95Q9.33-20.95 7.82-19.29 6.32-17.63 5.91-15.5L5.91-15.5ZM30.47-3.1Q30.37-2.95 30.28-2.83 30.2-2.71 30.2-2.53 30.2-2.34 30.34-2.34L30.34-2.34 39.74-2.34Q41.28-2.34 42.43-4.27L42.43-4.27Q43.23-5.62 43.52-5.91 43.8-6.2 44.13-6.2 44.46-6.2 44.46-5.91L44.46-5.91 42.65-1.12Q42.6-1.03 42.47-0.51 42.33 0 41.97 0L41.97 0 24.75 0Q24.22 0 24.22-0.49L24.22-0.49Q24.22-0.83 24.36-1.1L24.36-1.1 36.64-17.94Q36.89-18.29 37.07-18.53 37.25-18.77 37.29-19.07 37.33-19.36 34.06-19.36L34.06-19.36 29.05-19.36Q27.07-19.36 26.24-16.89L26.24-16.89Q26.02-16.24 25.74-15.32 25.46-14.4 25.05-14.4L25.05-14.4Q24.8-14.4 24.8-14.5L24.8-14.5 26.19-22.66Q26.27-22.95 26.6-22.95 26.93-22.95 27.22-22.45 27.51-21.95 27.93-21.9L27.93-21.9Q29.76-21.66 32.93-21.66 36.11-21.66 43.21-21.8L43.21-21.8Q43.45-21.73 43.45-21.2 43.45-20.68 43.06-20.36L43.06-20.36 30.47-3.1ZM61.32-21.97L70.58-21.97Q70.84-21.9 70.84-21.63 70.84-21.36 70.8-21.28 70.75-21.19 70.56-21.13 70.38-21.07 70.05-21.02 69.72-20.97 69.01-20.84 68.31-20.7 67.74-19.85 67.18-18.99 66.55-17.48L66.55-17.48 55.07 10.96 53.49 14.33Q52.88 15.63 50.92 15.63L50.92 15.63Q50.07 15.63 49.56 15.06 49.04 14.5 49.04 13.73 49.04 12.96 49.42 12.61 49.8 12.26 50.31 12.04 50.83 11.82 51.37 11.63 51.92 11.45 52.61 10.8 53.29 10.16 53.41 9.84L53.41 9.84Q57.51 0.66 57.51 0.24 57.51-0.17 57.03-0.78L57.03-0.78 48.97-17.6Q48.07-20.07 45.87-20.78L45.87-20.78Q45.7-20.83 45.45-20.85L45.45-20.85Q44.43-20.95 44.43-21.46 44.43-21.97 45.01-21.97L45.01-21.97 55.88-21.97Q56.07-21.97 56.07-21.59 56.07-21.22 55.73-21.08 55.39-20.95 54.22-20.95L54.22-20.95Q52.34-20.95 52.34-19.48L52.34-19.48 52.56-18.9 58.88-5.35Q59.37-4.1 59.86-5.42L59.86-5.42Q59.91-5.54 60.47-7.01L60.47-7.01Q63.79-15.43 64.19-16.75 64.59-18.07 64.59-18.73 64.59-19.38 63.9-20.12 63.2-20.85 61.99-20.85 60.79-20.85 60.79-21.56L60.79-21.56Q60.79-21.97 61.32-21.97L61.32-21.97ZM90.69-33.96L92.06-34.13Q92.3-34.13 92.3-33.59L92.3-33.59 92.94-28.39Q93.03-27.91 93.03-27.77 93.03-27.64 92.66-27.64 92.28-27.64 92.18-27.73 92.08-27.83 91.98-28.06 91.89-28.3 91.75-28.59 91.62-28.88 91.47-29.17L91.47-29.17Q90.96-30.3 89.86-31.4L89.86-31.4Q87.18-33.98 83.81-33.98L83.81-33.98Q81.78-33.98 79.97-32.67 78.17-31.35 78.17-29.55 78.17-27.76 78.84-26.44 79.51-25.12 80.61-24 81.71-22.88 83.12-21.85 84.54-20.83 86-19.78L86-19.78Q89.89-17.07 91.52-15.14L91.52-15.14Q94.08-12.16 94.3-8.45L94.3-8.45Q94.3-4.3 91.12-1.82 87.93 0.66 83.71 0.66L83.71 0.66Q81 0.66 79.4 0.11 77.8-0.44 77.19-0.68 76.58-0.93 76.3-0.93 76.02-0.93 75.94-0.9L75.94-0.9 74.75-0.66Q74.43-0.66 74.36-1.17L74.36-1.17Q73.65-7.23 73.65-7.6 73.65-7.98 73.71-8.12 73.77-8.25 74.04-8.25L74.04-8.25Q74.72-8.25 75.29-6.3L75.29-6.3Q77.85-0.81 83.81-0.81L83.81-0.81Q86.54-0.81 88.48-2.47 90.42-4.13 90.42-6.79L90.42-6.79Q90.42-11.04 85.34-14.7L85.34-14.7Q83.9-15.72 81.19-17.55 78.48-19.38 76.87-21.22L76.87-21.22Q74.36-24.05 74.36-27.53 74.36-31.01 77.13-33.23 79.9-35.45 83.49-35.45L83.49-35.45Q85.34-35.45 87.58-34.81 89.81-34.18 90.69-33.96L90.69-33.96ZM104.82-39.58L104.82-18.9Q104.82-18.31 104.99-18.31 105.17-18.31 105.24-18.4 105.31-18.48 106.26-19.53L106.26-19.53Q109.02-22.61 111.86-22.61L111.86-22.61Q115.57-22.61 117.3-20.95L117.3-20.95Q119.42-18.85 119.42-13.89L119.42-13.89 119.42-3.71Q119.42-1.32 122.06-0.93L122.06-0.93Q123.21-0.78 123.21-0.42 123.21-0.05 122.96 0L122.96 0 112.07 0Q111.83-0.05 111.83-0.34L111.83-0.34Q111.83-0.78 112.98-0.93L112.98-0.93Q115.62-1.32 115.62-3.71L115.62-3.71 115.62-13.65Q115.62-17.24 115.1-18.31L115.1-18.31Q114.13-20.46 111.03-20.46L111.03-20.46Q109.12-20.46 106.97-18.84 104.82-17.21 104.82-15.26L104.82-15.26 104.82-3.71Q104.82-1.32 107.46-0.93L107.46-0.93Q108.61-0.78 108.61-0.42 108.61-0.05 108.36 0L108.36 0 97.48 0Q97.23-0.05 97.23-0.34L97.23-0.34Q97.23-0.78 98.38-0.93L98.38-0.93Q101.02-1.32 101.02-3.71L101.02-3.71 101.02-34.16Q101.02-35.18 99.89-35.57L99.89-35.57Q99.4-35.74 98.84-35.85 98.28-35.96 97.95-36.06 97.62-36.16 97.54-36.24 97.45-36.33 97.45-36.61 97.45-36.89 97.82-37.08L97.82-37.08 104.04-40.01Q104.34-40.16 104.41-40.16L104.41-40.16Q104.82-40.16 104.82-39.58L104.82-39.58ZM125.77-10.97Q125.77-15.77 129.17-19.23 132.58-22.68 137.34-22.68 142.1-22.68 145.62-19.32 149.13-15.97 149.13-11.04 149.13-6.1 145.8-2.72 142.47 0.66 137.44 0.66 132.41 0.66 129.09-2.76 125.77-6.18 125.77-10.97ZM131.85-4.69L131.85-4.69Q134.24-0.66 138.37-0.66L138.37-0.66Q141.56-0.66 143.26-3.22 144.96-5.79 144.96-9.52 144.96-13.26 142.58-17.19 140.2-21.12 136.17-21.12L136.17-21.12Q133.22-21.12 131.52-18.57 129.82-16.02 129.82-12.1 129.82-8.18 131.85-4.69ZM171.05-2.56L171.05-2.56Q167.69 0.66 163.49 0.66L163.49 0.66Q161.97 0.66 159.36 0.1L159.36 0.1Q158.94 0.1 158.91 0.39 158.87 0.68 158.85 1L158.85 1 158.85 11.43Q158.85 13.26 160.97 13.87L160.97 13.87Q161.9 14.11 162.7 14.22 163.51 14.33 163.74 14.43 163.97 14.53 163.97 14.81 163.97 15.09 163.73 15.14L163.73 15.14 151.5 15.14Q151.25 15.09 151.25 14.79L151.25 14.79Q151.25 14.36 152.4 14.21L152.4 14.21Q155.04 13.82 155.04 11.43L155.04 11.43 155.04-17.85Q155.04-18.87 153.92-19.26L153.92-19.26Q153.43-19.43 152.87-19.54 152.3-19.65 151.97-19.75 151.65-19.85 151.56-19.93 151.47-20.02 151.47-20.3 151.47-20.58 151.84-20.78L151.84-20.78 158.07-23.75Q158.26-23.85 158.46-23.85L158.46-23.85Q158.85-23.85 158.85-23.27L158.85-23.27 158.85-20.17Q158.85-19.9 159.13-19.9 159.41-19.9 160.48-20.61L160.48-20.61Q163.58-22.61 166.93-22.61L166.93-22.61Q169.27-22.61 171.23-20.7L171.23-20.7Q173.79-18.21 174.64-13.77L174.64-13.77Q174.89-12.5 174.89-11.07 174.89-9.64 174.42-8.06L174.42-8.06Q173.5-4.91 171.05-2.56ZM164.07-20.07L164.07-20.07Q160.75-20.07 158.85-18.16L158.85-18.16 158.85-4.44Q158.85-3.22 159.26-2.86L159.26-2.86Q160.34-1.93 162.56-1.42L162.56-1.42Q166.95-0.42 169.39-3.52L169.39-3.52Q171.13-5.74 171.13-8.89L171.13-8.89Q171.13-15.01 168.37-18.07L168.37-18.07Q166.71-19.92 164.07-20.07ZM197.66-2.56L197.66-2.56Q194.29 0.66 190.09 0.66L190.09 0.66Q188.58 0.66 185.97 0.1L185.97 0.1Q185.55 0.1 185.52 0.39 185.48 0.68 185.46 1L185.46 1 185.46 11.43Q185.46 13.26 187.58 13.87L187.58 13.87Q188.51 14.11 189.31 14.22 190.12 14.33 190.35 14.43 190.58 14.53 190.58 14.81 190.58 15.09 190.34 15.14L190.34 15.14 178.11 15.14Q177.86 15.09 177.86 14.79L177.86 14.79Q177.86 14.36 179.01 14.21L179.01 14.21Q181.65 13.82 181.65 11.43L181.65 11.43 181.65-17.85Q181.65-18.87 180.52-19.26L180.52-19.26Q180.04-19.43 179.47-19.54 178.91-19.65 178.58-19.75 178.25-19.85 178.17-19.93 178.08-20.02 178.08-20.3 178.08-20.58 178.45-20.78L178.45-20.78 184.67-23.75Q184.87-23.85 185.07-23.85L185.07-23.85Q185.46-23.85 185.46-23.27L185.46-23.27 185.46-20.17Q185.46-19.9 185.74-19.9 186.02-19.9 187.09-20.61L187.09-20.61Q190.19-22.61 193.54-22.61L193.54-22.61Q195.88-22.61 197.83-20.7L197.83-20.7Q200.4-18.21 201.25-13.77L201.25-13.77Q201.5-12.5 201.5-11.07 201.5-9.64 201.03-8.06L201.03-8.06Q200.1-4.91 197.66-2.56ZM190.68-20.07L190.68-20.07Q187.36-20.07 185.46-18.16L185.46-18.16 185.46-4.44Q185.46-3.22 185.87-2.86L185.87-2.86Q186.95-1.93 189.17-1.42L189.17-1.42Q193.56-0.42 196-3.52L196-3.52Q197.74-5.74 197.74-8.89L197.74-8.89Q197.74-15.01 194.98-18.07L194.98-18.07Q193.32-19.92 190.68-20.07ZM216.78 0L205.89 0Q205.64-0.05 205.64-0.34L205.64-0.34Q205.64-0.78 206.79-0.93L206.79-0.93Q209.43-1.32 209.43-3.71L209.43-3.71 209.43-16.63Q209.43-17.65 208.31-18.04L208.31-18.04Q207.82-18.21 207.26-18.32 206.69-18.43 206.36-18.53 206.03-18.63 205.95-18.71 205.86-18.8 205.86-19.08 205.86-19.36 206.23-19.56L206.23-19.56 212.46-22.49Q212.75-22.63 212.82-22.63L212.82-22.63Q213.24-22.63 213.24-22.05L213.24-22.05 213.24-3.71Q213.24-1.32 215.87-0.93L215.87-0.93Q217.02-0.78 217.02-0.42 217.02-0.05 216.78 0L216.78 0ZM210.98-29.49Q209.97-29.49 209.2-30.13 208.43-30.76 208.43-31.9 208.43-33.03 209.16-33.69 209.89-34.35 210.91-34.35 211.92-34.35 212.61-33.57 213.31-32.79 213.31-31.88 213.31-30.98 212.65-30.24 211.99-29.49 210.98-29.49ZM237.87-7.69L237.87-7.69 237.82-12.84Q237.82-15.99 237.28-17.26 236.75-18.53 235.92-19.18 235.08-19.82 233.68-19.82 232.28-19.82 227.74-17.63L227.74-17.63Q227.13-17.26 227.1-16.94L227.1-16.94 227.1-3.81Q227.1-1.34 229.74-0.98L229.74-0.98Q230.89-0.81 230.89-0.43 230.89-0.05 230.64 0L230.64 0 219.75 0Q219.51-0.05 219.51-0.34L219.51-0.34Q219.51-0.81 220.66-0.98L220.66-0.98Q223.29-1.34 223.29-3.81L223.29-3.81 223.29-17.82Q223.29-18.85 222.17-19.24L222.17-19.24Q221.68-19.41 221.12-19.52 220.56-19.63 220.23-19.73 219.9-19.82 219.81-19.91 219.73-20 219.73-20.28 219.73-20.56 220.09-20.75L220.09-20.75 226.32-23.68Q226.61-23.83 226.69-23.83L226.69-23.83Q227.1-23.83 227.1-23.24L227.1-23.24 227.1-19.43Q227.17-19.19 227.3-19.19L227.3-19.19Q227.44-19.19 228.35-19.63L228.35-19.63Q230.45-20.68 232.57-21.66 234.69-22.63 236.09-22.63L236.09-22.63Q241.73-22.63 241.73-12.35L241.73-12.35 241.51-5.22 241.51-3.81Q241.51-1.9 243.41-1.32L243.41-1.32Q244.22-1.05 244.96-0.94 245.71-0.83 245.94-0.73 246.17-0.63 246.17-0.34 246.17-0.05 245.92 0L245.92 0 234.16 0Q233.91-0.05 233.91-0.34L233.91-0.34Q233.91-0.81 235.06-0.98L235.06-0.98Q237.67-1.34 237.67-4L237.67-4Q237.87-5.22 237.87-7.69ZM266.65-20.29L266.65-20.29Q266.65-20.29 273.19-20.58L273.19-20.58Q273.75-20.58 273.93-20.46 274.1-20.34 274.29-19.62 274.49-18.9 274.49-18.26 274.49-17.63 274.36-17.53 274.24-17.43 273.88-17.43L273.88-17.43 268.46-17.43Q268.6-17.16 268.77-16.87 268.94-16.58 269.21-15.89 269.48-15.21 269.48-13.78 269.48-12.35 268.79-10.8 268.09-9.25 266.75-8.06L266.75-8.06Q263.77-5.37 259.03-5.37L259.03-5.37Q257.79-5.37 256.3-5.83L256.3-5.83Q255.93-5.44 255.32-5.11 254.71-4.79 254.13-4.44L254.13-4.44Q252.66-3.61 252.66-2.78L252.66-2.78Q252.66-0.71 259.55-0.66 266.43-0.61 268.59-0.21 270.75 0.2 271.95 1.39L271.95 1.39Q273.83 3.27 273.83 5.69L273.83 5.69Q273.83 7.76 272.05 9.96L272.05 9.96Q268.94 13.84 262.57 15.14L262.57 15.14Q260.3 15.6 257.76 15.6L257.76 15.6Q253.15 15.6 250.76 13.93 248.36 12.26 248.36 9.89L248.36 9.89Q248.36 8.59 248.97 7.75 249.58 6.91 250.52 6.16 251.46 5.42 252.59 4.6 253.71 3.78 254.74 2.51L254.74 2.51Q252.39 2.32 250.72 1.03 249.05-0.27 249.05-1.51 249.05-2.76 249.71-3.36 250.37-3.96 251.32-4.38 252.27-4.81 253.32-5.18 254.37-5.54 255.15-6.13L255.15-6.13Q252.42-7.2 250.93-9.09 249.44-10.99 249.44-13.23L249.44-13.23Q249.44-17.41 252.48-20.04 255.52-22.68 259.81-22.68 264.11-22.68 266.65-20.29ZM253.38 5.18Q252.81 5.74 252.44 6.37 252.07 7.01 252.07 7.97 252.07 8.94 252.77 10 253.47 11.06 254.66 11.91L254.66 11.91Q257.3 13.87 261.01 13.87 264.72 13.87 267.74 11.71 270.75 9.55 270.75 6.97 270.75 4.39 268.26 3.52L268.26 3.52Q267.09 3.13 262.23 3.03 257.37 2.93 255.93 2.76L255.93 2.76Q255.3 3.49 254.63 4.05 253.95 4.61 253.38 5.18ZM265.48-13.79Q265.48-17.24 263.76-19.4 262.04-21.56 259.2-21.56L259.2-21.56Q255.54-21.56 254.03-18.12L254.03-18.12Q253.44-16.8 253.44-15.09L253.44-15.09Q253.44-11.6 254.88-9.28L254.88-9.28Q256.64-6.49 259.5-6.49 262.35-6.49 263.92-8.42 265.48-10.35 265.48-13.79Z" opacity="1" transform="matrix(1,0,0,1,0,0)" fill="#ff908b" class="wordmark-text-0" data-fill-palette-color="primary" id="text-0"></path></svg></g></svg></g></svg></g></svg></g></svg></g></svg></g></svg></g><g><path d="M245.816 0c68.262 0 123.6 55.338 123.6 123.6 0 68.262-55.338 123.6-123.6 123.6-57.595 0-105.99-39.394-119.708-92.708l2.329 0c13.663 52.055 61.037 90.454 117.379 90.454 67.018 0 121.346-54.329 121.346-121.346 0-67.018-54.329-121.346-121.346-121.346-56.342 0-103.716 38.399-117.379 90.454l-2.329 0c13.718-53.313 62.113-92.708 119.708-92.708z" fill="#ff908b" stroke="transparent" data-fill-palette-color="tertiary"></path></g></svg></g><defs></defs></svg><rect width="395.52" height="247.2" fill="none" stroke="none" visibility="hidden"></rect></g></svg></g></svg>